<svg xmlns="http://www.w3.org/2000/svg" viewBox="0 0 100 100">
  <rect width="100" height="100" rx="20" fill="#0A0A0A" stroke="#FF107A" stroke-width="6"/>
  <path fill="#FF107A" transform="translate(18, 18) scale(2.6)" d="M17.5 4a3.5 3.5 0 00-2.8 1.43 8.9 8.9 0 00-5.4 0A3.5 3.5 0 106 8.5v.17c-2.3.8-4 3.03-4 5.83 0 3.31 2.69 6 6 6h8c3.31 0 6-2.69 6-6 0-2.8-1.7-5.02-4-5.83V8.5a3.5 3.5 0 00-1.5-2.87V4h-1zM7 7.5a1.5 1.5 0 11-3 0 1.5 1.5 0 013 0zm11.5 1.5a1.5 1.5 0 110-3 1.5 1.5 0 010 3zM10 16a2 2 0 11-4 0h4zm8 0a2 2 0 11-4 0h4z"/>
</svg>